{"accessors" : [{"bufferView" : 0, "byteOffset" : 0, "componentType" : 5123, "count" : 17376, "type" : "SCALAR", "max" : [11583], "min" : [0]}, {"bufferView" : 1, "byteOffset" : 0, "componentType" : 5126, "count" : 11584, "type" : "VEC3", "max" : [5.000000953674316, 1.2996829748153687, 0], "min" : [-1, -0.07999999821186066, -5.000000953674316], "name" : "POSITION"}, {"bufferView" : 1, "byteOffset" : 12, "componentType" : 5126, "count" : 11584, "type" : "VEC2", "max" : [0.5598959922790527, 0.78125], "min" : [0.5598959922790527, 0.78125], "name" : "TEXCOORD_0"}, {"bufferView" : 1, "byteOffset" : 20, "componentType" : 5126, "count" : 11584, "type" : "VEC3", "max" : [1.0000044107437134, 1.0000044107437134, 1.0000044107437134], "min" : [-1.0000044107437134, -1.0000044107437134, -1.0000044107437134], "name" : "NORMAL"}], "asset" : {"generator" : "Aspose.3D 24.6.0", "version" : "2.0"}, "buffers" : [{"uri" : "buffer.bin", "byteLength" : 405448}], "bufferViews" : [{"buffer" : 0, "byteOffset" : 0, "byteLength" : 34752, "target" : 34963}, {"buffer" : 0, "byteOffset" : 34756, "byteLength" : 370688, "byteStride" : 32, "target" : 34962}], "meshes" : [{"primitives" : [{"attributes" : {"POSITION" : 1, "TEXCOORD_0" : 2, "NORMAL" : 3}, "indices" : 0, "mode" : 4}], "name" : ""}], "nodes" : [{"mesh" : 0, "name" : "fbxNode"}], "scene" : 0, "scenes" : [{"nodes" : [0]}]}